<svg width="240" height="240" viewBox="0 0 240 240" fill="none" xmlns="http://www.w3.org/2000/svg">
<circle cx="120" cy="120" r="120" fill="#FCCC54"/>
<path d="M166.418 101.379L136.664 97.0547L123.363 70.0898C123 69.3516 122.402 68.7539 121.664 68.3906C119.813 67.4766 117.563 68.2383 116.637 70.0898L103.336 97.0547L73.5821 101.379C72.7618 101.496 72.0118 101.883 71.4375 102.469C70.7433 103.182 70.3608 104.142 70.374 105.138C70.3872 106.133 70.795 107.082 71.5078 107.777L93.0352 128.766L87.9493 158.402C87.83 159.092 87.9063 159.801 88.1695 160.449C88.4327 161.097 88.8722 161.659 89.4383 162.07C90.0044 162.481 90.6744 162.725 91.3723 162.775C92.0702 162.825 92.768 162.678 93.3868 162.352L120 148.359L146.613 162.352C147.34 162.738 148.184 162.867 148.992 162.727C151.031 162.375 152.402 160.441 152.051 158.402L146.965 128.766L168.492 107.777C169.078 107.203 169.465 106.453 169.582 105.633C169.898 103.582 168.469 101.684 166.418 101.379Z" fill="black"/>
</svg>
