<svg width="240" height="240" viewBox="0 0 240 240" fill="none" xmlns="http://www.w3.org/2000/svg">
<circle cx="120" cy="120" r="120" fill="#FCCC54"/>
<path d="M120 67.5C91.0078 67.5 67.5 91.0078 67.5 120C67.5 148.992 91.0078 172.5 120 172.5C148.992 172.5 172.5 148.992 172.5 120C172.5 91.0078 148.992 67.5 120 67.5ZM120 163.594C95.9297 163.594 76.4062 144.07 76.4062 120C76.4062 95.9297 95.9297 76.4062 120 76.4062C144.07 76.4062 163.594 95.9297 163.594 120C163.594 144.07 144.07 163.594 120 163.594Z" fill="black"/>
<path d="M120 76.4062C95.9297 76.4062 76.4062 95.9297 76.4062 120C76.4062 144.07 95.9297 163.594 120 163.594C144.07 163.594 163.594 144.07 163.594 120C163.594 95.9297 144.07 76.4062 120 76.4062ZM133.723 144.504C133.723 144.949 133.406 145.324 132.973 145.418C131.109 145.816 128.941 146.016 126.492 146.016C113.625 146.016 105.047 139.125 103.031 127.5H99.4922C98.9766 127.5 98.5547 127.078 98.5547 126.562V123.375C98.5547 122.859 98.9766 122.437 99.4922 122.437H102.551V118.113C102.551 117.598 102.551 117.094 102.586 116.613H99.4922C98.9766 116.613 98.5547 116.191 98.5547 115.676V112.488C98.5547 111.973 98.9766 111.551 99.4922 111.551H103.219C105.527 100.512 113.988 93.9844 126.492 93.9844C128.941 93.9844 131.109 94.207 132.973 94.6172C133.406 94.7109 133.711 95.0859 133.711 95.5313V100.547C133.71 100.686 133.679 100.822 133.619 100.947C133.559 101.072 133.472 101.183 133.365 101.27C133.257 101.357 133.131 101.42 132.997 101.453C132.862 101.486 132.722 101.489 132.586 101.461C130.875 101.121 128.859 100.945 126.527 100.945C118.875 100.945 113.59 104.871 111.574 111.539H126.609C127.125 111.539 127.547 111.961 127.547 112.477V115.664C127.547 116.18 127.125 116.602 126.609 116.602H110.684C110.648 117.117 110.648 117.668 110.648 118.219V122.437H126.633C127.148 122.437 127.57 122.859 127.57 123.375V126.562C127.57 127.078 127.148 127.5 126.633 127.5H111.328C113.121 134.766 118.512 139.055 126.539 139.055C128.871 139.055 130.887 138.902 132.609 138.574C133.184 138.457 133.723 138.902 133.723 139.488V144.504Z" fill="black" fill-opacity="0.15"/>
<path d="M132.609 138.574C130.887 138.902 128.871 139.055 126.539 139.055C118.512 139.055 113.121 134.766 111.328 127.5H126.633C127.148 127.5 127.57 127.078 127.57 126.562V123.375C127.57 122.859 127.148 122.437 126.633 122.437H110.648V118.219C110.648 117.668 110.648 117.117 110.684 116.602H126.609C127.125 116.602 127.547 116.18 127.547 115.664V112.477C127.547 111.961 127.125 111.539 126.609 111.539H111.574C113.59 104.871 118.875 100.945 126.527 100.945C128.859 100.945 130.875 101.121 132.586 101.461C132.722 101.489 132.862 101.486 132.997 101.453C133.131 101.42 133.257 101.357 133.365 101.27C133.472 101.183 133.559 101.072 133.619 100.947C133.679 100.822 133.71 100.686 133.711 100.547V95.5313C133.711 95.0859 133.406 94.7109 132.973 94.6172C131.109 94.207 128.941 93.9844 126.492 93.9844C113.988 93.9844 105.527 100.512 103.219 111.551H99.4922C98.9766 111.551 98.5547 111.973 98.5547 112.488V115.676C98.5547 116.191 98.9766 116.613 99.4922 116.613H102.586C102.551 117.094 102.551 117.598 102.551 118.113V122.437H99.4922C98.9766 122.437 98.5547 122.859 98.5547 123.375V126.562C98.5547 127.078 98.9766 127.5 99.4922 127.5H103.031C105.047 139.125 113.625 146.016 126.492 146.016C128.941 146.016 131.109 145.816 132.973 145.418C133.406 145.324 133.723 144.949 133.723 144.504V139.488C133.723 138.902 133.184 138.457 132.609 138.574Z" fill="black"/>
</svg>
