<svg width="167" height="250" viewBox="0 0 167 250" fill="none" xmlns="http://www.w3.org/2000/svg">
<g clip-path="url(#clip0_1_61)">
<path d="M41.6834 250C64.6834 250 83.35 231.333 83.35 208.333V166.667H41.6834C18.6834 166.667 0.0167236 185.333 0.0167236 208.333C0.0167236 231.333 18.6834 250 41.6834 250Z" fill="#0ACF83"/>
<path d="M0.0167236 125C0.0167236 102 18.6834 83.3333 41.6834 83.3333H83.35V166.667H41.6834C18.6834 166.667 0.0167236 148 0.0167236 125Z" fill="#A259FF"/>
<path d="M0.0167236 41.6667C0.0167236 18.6667 18.6834 0 41.6834 0H83.35V83.3333H41.6834C18.6834 83.3333 0.0167236 64.6667 0.0167236 41.6667Z" fill="#F24E1E"/>
<path d="M83.35 0H125.017C148.017 0 166.683 18.6667 166.683 41.6667C166.683 64.6667 148.017 83.3333 125.017 83.3333H83.35V0Z" fill="#FF7262"/>
<path d="M166.433 124.667C166.433 147.667 147.767 166.333 124.767 166.333C101.767 166.333 83.1 147.667 83.1 124.667C83.1 101.667 101.767 83 124.767 83C147.767 83 166.433 101.667 166.433 124.667Z" fill="#1ABCFE"/>
</g>
<defs>
<clipPath id="clip0_1_61">
<rect width="166.7" height="250" fill="white"/>
</clipPath>
</defs>
</svg>
