<svg width="240" height="240" viewBox="0 0 240 240" fill="none" xmlns="http://www.w3.org/2000/svg">
<circle cx="120" cy="120" r="120" fill="#FCCC54"/>
<path d="M161.719 78.75H150.938V74.0625C150.938 73.5469 150.516 73.125 150 73.125H90C89.4844 73.125 89.0625 73.5469 89.0625 74.0625V78.75H78.2812C76.9137 78.75 75.6022 79.2932 74.6352 80.2602C73.6682 81.2272 73.125 82.5387 73.125 83.9062V101.25C73.125 110.824 80.1562 118.781 89.3203 120.234C91.125 133.852 102.07 144.586 115.781 146.074V158.402H92.8125C90.7383 158.402 89.0625 160.078 89.0625 162.152V165.938C89.0625 166.453 89.4844 166.875 90 166.875H150C150.516 166.875 150.938 166.453 150.938 165.938V162.152C150.938 160.078 149.262 158.402 147.188 158.402H124.219V146.074C137.93 144.586 148.875 133.852 150.68 120.234C159.844 118.781 166.875 110.824 166.875 101.25V83.9062C166.875 82.5387 166.332 81.2272 165.365 80.2602C164.398 79.2932 163.086 78.75 161.719 78.75ZM89.0625 111.516C84.7148 110.121 81.5625 106.043 81.5625 101.25V87.1875H89.0625V111.516ZM158.438 101.25C158.438 106.055 155.285 110.133 150.938 111.516V87.1875H158.438V101.25Z" fill="black"/>
</svg>
